<svg width="622" height="200" viewBox="0 0 622 200" fill="none" xmlns="http://www.w3.org/2000/svg">
<rect width="622" height="40" rx="8" fill="#F3F5B5"/>
<rect width="526" height="40" rx="4" fill="#F3F5B5"/>
<path d="M16.308 25L19.892 15.2H22.034L25.604 25H23.602L20.956 17.356L18.296 25H16.308ZM17.89 22.774L18.394 21.304H23.378L23.868 22.774H17.89ZM26.8498 25V14.92H28.7398V25H26.8498ZM30.5822 25V14.92H32.4722V25H30.5822ZM39.4995 25L36.9095 17.944H38.8975L40.6475 23.222L42.3975 17.944H44.3715L41.7955 25H39.4995ZM45.5676 25V17.944H47.4576V25H45.5676ZM46.5196 16.978C46.1836 16.978 45.9036 16.88 45.6796 16.684C45.4649 16.4787 45.3576 16.222 45.3576 15.914C45.3576 15.606 45.4649 15.354 45.6796 15.158C45.9036 14.9527 46.1836 14.85 46.5196 14.85C46.8649 14.85 47.1449 14.9527 47.3596 15.158C47.5836 15.354 47.6956 15.606 47.6956 15.914C47.6956 16.222 47.5836 16.4787 47.3596 16.684C47.1449 16.88 46.8649 16.978 46.5196 16.978ZM52.2514 25.168C51.6074 25.168 51.0474 25.0653 50.5714 24.86C50.0954 24.6547 49.722 24.37 49.4514 24.006C49.1807 23.642 49.0267 23.2313 48.9894 22.774H50.8654C50.912 22.9513 50.9914 23.1147 51.1034 23.264C51.2154 23.404 51.3647 23.516 51.5514 23.6C51.738 23.684 51.962 23.726 52.2234 23.726C52.4754 23.726 52.6807 23.6933 52.8394 23.628C52.998 23.5533 53.1147 23.4553 53.1894 23.334C53.2734 23.2127 53.3154 23.0867 53.3154 22.956C53.3154 22.76 53.2594 22.6107 53.1474 22.508C53.0354 22.396 52.872 22.3073 52.6574 22.242C52.4427 22.1767 52.1814 22.1113 51.8734 22.046C51.5374 21.9807 51.206 21.9013 50.8794 21.808C50.562 21.7053 50.2774 21.5793 50.0254 21.43C49.7734 21.2807 49.5727 21.0893 49.4234 20.856C49.274 20.6227 49.1994 20.3333 49.1994 19.988C49.1994 19.568 49.3114 19.1947 49.5354 18.868C49.7594 18.532 50.086 18.266 50.5154 18.07C50.9447 17.874 51.4627 17.776 52.0694 17.776C52.9187 17.776 53.5907 17.9673 54.0854 18.35C54.58 18.7327 54.874 19.26 54.9674 19.932H53.1894C53.1334 19.7173 53.0074 19.5493 52.8114 19.428C52.6247 19.2973 52.3727 19.232 52.0554 19.232C51.7194 19.232 51.4627 19.2927 51.2854 19.414C51.108 19.5353 51.0194 19.694 51.0194 19.89C51.0194 20.0207 51.0754 20.1373 51.1874 20.24C51.3087 20.3427 51.4767 20.4313 51.6914 20.506C51.906 20.5713 52.1674 20.6367 52.4754 20.702C53.0167 20.814 53.4927 20.9447 53.9034 21.094C54.314 21.234 54.636 21.4393 54.8694 21.71C55.1027 21.9713 55.2194 22.354 55.2194 22.858C55.2194 23.306 55.098 23.7073 54.8554 24.062C54.6127 24.4073 54.2674 24.678 53.8194 24.874C53.3807 25.07 52.858 25.168 52.2514 25.168ZM56.8605 25V17.944H58.7505V25H56.8605ZM57.8125 16.978C57.4765 16.978 57.1965 16.88 56.9725 16.684C56.7579 16.4787 56.6505 16.222 56.6505 15.914C56.6505 15.606 56.7579 15.354 56.9725 15.158C57.1965 14.9527 57.4765 14.85 57.8125 14.85C58.1579 14.85 58.4379 14.9527 58.6525 15.158C58.8765 15.354 58.9885 15.606 58.9885 15.914C58.9885 16.222 58.8765 16.4787 58.6525 16.684C58.4379 16.88 58.1579 16.978 57.8125 16.978ZM63.8383 25C63.3437 25 62.9097 24.9253 62.5363 24.776C62.1723 24.6173 61.8877 24.3607 61.6823 24.006C61.477 23.642 61.3743 23.1473 61.3743 22.522V19.526H60.1703V17.944H61.3743L61.5843 16.026H63.2643V17.944H65.1263V19.526H63.2643V22.55C63.2643 22.8673 63.3343 23.0867 63.4743 23.208C63.6143 23.3293 63.8523 23.39 64.1883 23.39H65.1123V25H63.8383ZM69.8712 25.168C69.1992 25.168 68.5926 25.014 68.0512 24.706C67.5192 24.3887 67.0946 23.9547 66.7772 23.404C66.4692 22.844 66.3152 22.2047 66.3152 21.486C66.3152 20.7487 66.4692 20.1047 66.7772 19.554C67.0946 18.994 67.5239 18.56 68.0652 18.252C68.6066 17.9347 69.2132 17.776 69.8852 17.776C70.5666 17.776 71.1732 17.9347 71.7052 18.252C72.2466 18.56 72.6712 18.994 72.9792 19.554C73.2966 20.1047 73.4552 20.744 73.4552 21.472C73.4552 22.2 73.2966 22.844 72.9792 23.404C72.6712 23.9547 72.2466 24.3887 71.7052 24.706C71.1639 25.014 70.5526 25.168 69.8712 25.168ZM69.8712 23.53C70.1886 23.53 70.4686 23.4553 70.7112 23.306C70.9632 23.1567 71.1592 22.928 71.2992 22.62C71.4486 22.312 71.5232 21.9293 71.5232 21.472C71.5232 21.0147 71.4486 20.6367 71.2992 20.338C71.1592 20.03 70.9632 19.8013 70.7112 19.652C70.4686 19.4933 70.1932 19.414 69.8852 19.414C69.5866 19.414 69.3112 19.4933 69.0592 19.652C68.8072 19.8013 68.6066 20.03 68.4572 20.338C68.3172 20.6367 68.2472 21.0147 68.2472 21.472C68.2472 21.9293 68.3172 22.312 68.4572 22.62C68.6066 22.928 68.8026 23.1567 69.0452 23.306C69.2972 23.4553 69.5726 23.53 69.8712 23.53ZM75.0842 25V17.944H76.7642L76.9462 19.246C77.1142 18.938 77.3242 18.6767 77.5762 18.462C77.8375 18.2473 78.1315 18.0793 78.4582 17.958C78.7942 17.8367 79.1628 17.776 79.5642 17.776V19.778H78.9202C78.6402 19.778 78.3788 19.8107 78.1362 19.876C77.9028 19.9413 77.6975 20.0487 77.5202 20.198C77.3428 20.338 77.2075 20.534 77.1142 20.786C77.0208 21.038 76.9742 21.3553 76.9742 21.738V25H75.0842ZM83.6967 25.168C83.0527 25.168 82.4927 25.0653 82.0167 24.86C81.5407 24.6547 81.1673 24.37 80.8967 24.006C80.626 23.642 80.472 23.2313 80.4347 22.774H82.3107C82.3573 22.9513 82.4367 23.1147 82.5487 23.264C82.6607 23.404 82.81 23.516 82.9967 23.6C83.1833 23.684 83.4073 23.726 83.6687 23.726C83.9207 23.726 84.126 23.6933 84.2847 23.628C84.4433 23.5533 84.56 23.4553 84.6347 23.334C84.7187 23.2127 84.7607 23.0867 84.7607 22.956C84.7607 22.76 84.7047 22.6107 84.5927 22.508C84.4807 22.396 84.3173 22.3073 84.1027 22.242C83.888 22.1767 83.6267 22.1113 83.3187 22.046C82.9827 21.9807 82.6513 21.9013 82.3247 21.808C82.0073 21.7053 81.7227 21.5793 81.4707 21.43C81.2187 21.2807 81.018 21.0893 80.8687 20.856C80.7193 20.6227 80.6447 20.3333 80.6447 19.988C80.6447 19.568 80.7567 19.1947 80.9807 18.868C81.2047 18.532 81.5313 18.266 81.9607 18.07C82.39 17.874 82.908 17.776 83.5147 17.776C84.364 17.776 85.036 17.9673 85.5307 18.35C86.0253 18.7327 86.3193 19.26 86.4127 19.932H84.6347C84.5787 19.7173 84.4527 19.5493 84.2567 19.428C84.07 19.2973 83.818 19.232 83.5007 19.232C83.1647 19.232 82.908 19.2927 82.7307 19.414C82.5533 19.5353 82.4647 19.694 82.4647 19.89C82.4647 20.0207 82.5207 20.1373 82.6327 20.24C82.754 20.3427 82.922 20.4313 83.1367 20.506C83.3513 20.5713 83.6127 20.6367 83.9207 20.702C84.462 20.814 84.938 20.9447 85.3487 21.094C85.7593 21.234 86.0813 21.4393 86.3147 21.71C86.548 21.9713 86.6647 22.354 86.6647 22.858C86.6647 23.306 86.5433 23.7073 86.3007 24.062C86.058 24.4073 85.7127 24.678 85.2647 24.874C84.826 25.07 84.3033 25.168 83.6967 25.168Z" fill="#44490D"/>
<path d="M570.17 25V17.37L568.434 17.832V16.32L570.982 15.2H572.13V25H570.17ZM578.028 25.168C577.141 25.168 576.376 24.9533 575.732 24.524C575.088 24.0947 574.593 23.502 574.248 22.746C573.912 21.9807 573.744 21.0987 573.744 20.1C573.744 19.1013 573.912 18.224 574.248 17.468C574.593 16.7027 575.083 16.1053 575.718 15.676C576.362 15.2467 577.132 15.032 578.028 15.032C578.924 15.032 579.689 15.2467 580.324 15.676C580.968 16.1053 581.458 16.7027 581.794 17.468C582.139 18.224 582.312 19.1013 582.312 20.1C582.312 21.0987 582.139 21.9807 581.794 22.746C581.458 23.502 580.968 24.0947 580.324 24.524C579.689 24.9533 578.924 25.168 578.028 25.168ZM578.028 23.474C578.494 23.474 578.905 23.3387 579.26 23.068C579.614 22.788 579.89 22.396 580.086 21.892C580.291 21.388 580.394 20.7907 580.394 20.1C580.394 19.4 580.291 18.8027 580.086 18.308C579.89 17.804 579.614 17.4167 579.26 17.146C578.905 16.8753 578.494 16.74 578.028 16.74C577.561 16.74 577.15 16.8753 576.796 17.146C576.441 17.4167 576.161 17.804 575.956 18.308C575.76 18.8027 575.662 19.4 575.662 20.1C575.662 20.7907 575.76 21.388 575.956 21.892C576.161 22.396 576.441 22.788 576.796 23.068C577.15 23.3387 577.561 23.474 578.028 23.474ZM587.885 25.168C586.998 25.168 586.233 24.9533 585.589 24.524C584.945 24.0947 584.45 23.502 584.105 22.746C583.769 21.9807 583.601 21.0987 583.601 20.1C583.601 19.1013 583.769 18.224 584.105 17.468C584.45 16.7027 584.94 16.1053 585.575 15.676C586.219 15.2467 586.989 15.032 587.885 15.032C588.781 15.032 589.546 15.2467 590.181 15.676C590.825 16.1053 591.315 16.7027 591.651 17.468C591.996 18.224 592.169 19.1013 592.169 20.1C592.169 21.0987 591.996 21.9807 591.651 22.746C591.315 23.502 590.825 24.0947 590.181 24.524C589.546 24.9533 588.781 25.168 587.885 25.168ZM587.885 23.474C588.352 23.474 588.762 23.3387 589.117 23.068C589.472 22.788 589.747 22.396 589.943 21.892C590.148 21.388 590.251 20.7907 590.251 20.1C590.251 19.4 590.148 18.8027 589.943 18.308C589.747 17.804 589.472 17.4167 589.117 17.146C588.762 16.8753 588.352 16.74 587.885 16.74C587.418 16.74 587.008 16.8753 586.653 17.146C586.298 17.4167 586.018 17.804 585.813 18.308C585.617 18.8027 585.519 19.4 585.519 20.1C585.519 20.7907 585.617 21.388 585.813 21.892C586.018 22.396 586.298 22.788 586.653 23.068C587.008 23.3387 587.418 23.474 587.885 23.474ZM595.432 25L600.934 15.2H602.768L597.266 25H595.432ZM602.432 25.168C601.975 25.168 601.56 25.07 601.186 24.874C600.822 24.6687 600.533 24.3793 600.318 24.006C600.104 23.6233 599.996 23.1753 599.996 22.662C599.996 22.1393 600.104 21.6913 600.318 21.318C600.533 20.9447 600.822 20.66 601.186 20.464C601.56 20.2587 601.975 20.156 602.432 20.156C602.89 20.156 603.3 20.2587 603.664 20.464C604.028 20.66 604.318 20.9447 604.532 21.318C604.747 21.6913 604.854 22.1393 604.854 22.662C604.854 23.1753 604.747 23.6233 604.532 24.006C604.318 24.3793 604.028 24.6687 603.664 24.874C603.3 25.07 602.89 25.168 602.432 25.168ZM602.418 23.866C602.605 23.866 602.768 23.8193 602.908 23.726C603.048 23.6327 603.16 23.4973 603.244 23.32C603.328 23.1427 603.37 22.9233 603.37 22.662C603.37 22.3913 603.328 22.1673 603.244 21.99C603.17 21.8033 603.058 21.6633 602.908 21.57C602.768 21.4767 602.605 21.43 602.418 21.43C602.241 21.43 602.078 21.4767 601.928 21.57C601.788 21.6633 601.676 21.8033 601.592 21.99C601.508 22.1673 601.466 22.3913 601.466 22.662C601.466 22.9233 601.508 23.1427 601.592 23.32C601.676 23.4973 601.788 23.6327 601.928 23.726C602.078 23.8193 602.241 23.866 602.418 23.866ZM595.838 20.058C595.39 20.058 594.98 19.9553 594.606 19.75C594.242 19.5447 593.948 19.2553 593.724 18.882C593.51 18.5087 593.402 18.0653 593.402 17.552C593.402 17.02 593.51 16.572 593.724 16.208C593.948 15.8347 594.242 15.5453 594.606 15.34C594.98 15.1347 595.395 15.032 595.852 15.032C596.31 15.032 596.716 15.1347 597.07 15.34C597.434 15.5453 597.724 15.8347 597.938 16.208C598.162 16.572 598.274 17.02 598.274 17.552C598.274 18.0653 598.162 18.5087 597.938 18.882C597.724 19.2553 597.434 19.5447 597.07 19.75C596.706 19.9553 596.296 20.058 595.838 20.058ZM595.838 18.756C596.016 18.756 596.174 18.7093 596.314 18.616C596.464 18.5227 596.58 18.3873 596.664 18.21C596.748 18.0327 596.79 17.8133 596.79 17.552C596.79 17.272 596.748 17.0433 596.664 16.866C596.58 16.6887 596.464 16.5533 596.314 16.46C596.174 16.3667 596.016 16.32 595.838 16.32C595.661 16.32 595.498 16.3667 595.348 16.46C595.208 16.5533 595.096 16.6933 595.012 16.88C594.928 17.0573 594.886 17.2813 594.886 17.552C594.886 17.8133 594.928 18.0327 595.012 18.21C595.096 18.3873 595.208 18.5227 595.348 18.616C595.498 18.7093 595.661 18.756 595.838 18.756Z" fill="#44490D"/>
<path d="M23.2929 68.2071C23.6834 68.5976 24.3166 68.5976 24.7071 68.2071L31.0711 61.8431C31.4616 61.4526 31.4616 60.8195 31.0711 60.4289C30.6805 60.0384 30.0474 60.0384 29.6569 60.4289L24 66.0858L18.3431 60.4289C17.9526 60.0384 17.3195 60.0384 16.9289 60.4289C16.5384 60.8195 16.5384 61.4526 16.9289 61.8431L23.2929 68.2071ZM24 52.5L23 52.5L23 67.5L24 67.5L25 67.5L25 52.5L24 52.5Z" fill="#D07E4F"/>
<path d="M46.446 65V63.222H41.63V61.724L46.194 55.2H48.336V61.584H49.61V63.222H48.336V65H46.446ZM43.646 61.584H46.572V57.286L43.646 61.584ZM55.0335 65.168C54.1468 65.168 53.3815 64.9533 52.7375 64.524C52.0935 64.0947 51.5988 63.502 51.2535 62.746C50.9175 61.9807 50.7495 61.0987 50.7495 60.1C50.7495 59.1013 50.9175 58.224 51.2535 57.468C51.5988 56.7027 52.0888 56.1053 52.7235 55.676C53.3675 55.2467 54.1375 55.032 55.0335 55.032C55.9295 55.032 56.6948 55.2467 57.3295 55.676C57.9735 56.1053 58.4635 56.7027 58.7995 57.468C59.1448 58.224 59.3175 59.1013 59.3175 60.1C59.3175 61.0987 59.1448 61.9807 58.7995 62.746C58.4635 63.502 57.9735 64.0947 57.3295 64.524C56.6948 64.9533 55.9295 65.168 55.0335 65.168ZM55.0335 63.474C55.5001 63.474 55.9108 63.3387 56.2655 63.068C56.6201 62.788 56.8955 62.396 57.0915 61.892C57.2968 61.388 57.3995 60.7907 57.3995 60.1C57.3995 59.4 57.2968 58.8027 57.0915 58.308C56.8955 57.804 56.6201 57.4167 56.2655 57.146C55.9108 56.8753 55.5001 56.74 55.0335 56.74C54.5668 56.74 54.1561 56.8753 53.8015 57.146C53.4468 57.4167 53.1668 57.804 52.9615 58.308C52.7655 58.8027 52.6675 59.4 52.6675 60.1C52.6675 60.7907 52.7655 61.388 52.9615 61.892C53.1668 62.396 53.4468 62.788 53.8015 63.068C54.1561 63.3387 54.5668 63.474 55.0335 63.474ZM61.1803 65.07C60.8257 65.07 60.541 64.9673 60.3263 64.762C60.1117 64.5473 60.0043 64.286 60.0043 63.978C60.0043 63.67 60.1117 63.4133 60.3263 63.208C60.541 62.9933 60.8257 62.886 61.1803 62.886C61.5163 62.886 61.7917 62.9933 62.0063 63.208C62.221 63.4133 62.3283 63.67 62.3283 63.978C62.3283 64.286 62.221 64.5473 62.0063 64.762C61.7917 64.9673 61.5163 65.07 61.1803 65.07ZM67.1297 65.168C66.495 65.168 65.9117 65.0513 65.3797 64.818C64.8477 64.5847 64.423 64.23 64.1057 63.754C63.7884 63.278 63.6204 62.676 63.6017 61.948H65.4497C65.459 62.256 65.529 62.536 65.6597 62.788C65.7904 63.0307 65.9817 63.2267 66.2337 63.376C66.4857 63.516 66.7844 63.586 67.1297 63.586C67.4564 63.586 67.7364 63.5207 67.9697 63.39C68.203 63.2593 68.3804 63.0867 68.5017 62.872C68.623 62.6573 68.6837 62.41 68.6837 62.13C68.6837 61.8033 68.5997 61.5327 68.4317 61.318C68.273 61.094 68.049 60.926 67.7597 60.814C67.4797 60.702 67.1577 60.646 66.7937 60.646H66.0657V59.092H66.7937C67.251 59.092 67.6337 58.9847 67.9417 58.77C68.259 58.5553 68.4177 58.2333 68.4177 57.804C68.4177 57.4493 68.301 57.1647 68.0677 56.95C67.8437 56.7353 67.5264 56.628 67.1157 56.628C66.6677 56.628 66.3177 56.7587 66.0657 57.02C65.8137 57.2813 65.6737 57.6033 65.6457 57.986H63.7977C63.8257 57.37 63.9797 56.8427 64.2597 56.404C64.549 55.956 64.9364 55.6153 65.4217 55.382C65.907 55.1487 66.4717 55.032 67.1157 55.032C67.797 55.032 68.371 55.1533 68.8377 55.396C69.3137 55.6293 69.673 55.9467 69.9157 56.348C70.1584 56.7493 70.2797 57.1833 70.2797 57.65C70.2797 58.0327 70.205 58.3733 70.0557 58.672C69.9157 58.9707 69.7244 59.218 69.4817 59.414C69.239 59.61 68.973 59.75 68.6837 59.834C69.0477 59.9087 69.365 60.0533 69.6357 60.268C69.9157 60.4733 70.1304 60.7393 70.2797 61.066C70.4384 61.3927 70.5177 61.7707 70.5177 62.2C70.5177 62.732 70.387 63.2267 70.1257 63.684C69.8737 64.132 69.491 64.4913 68.9777 64.762C68.4737 65.0327 67.8577 65.168 67.1297 65.168ZM73.8875 65L79.3895 55.2H81.2235L75.7215 65H73.8875ZM80.8875 65.168C80.4302 65.168 80.0149 65.07 79.6415 64.874C79.2775 64.6687 78.9882 64.3793 78.7735 64.006C78.5589 63.6233 78.4515 63.1753 78.4515 62.662C78.4515 62.1393 78.5589 61.6913 78.7735 61.318C78.9882 60.9447 79.2775 60.66 79.6415 60.464C80.0149 60.2587 80.4302 60.156 80.8875 60.156C81.3449 60.156 81.7555 60.2587 82.1195 60.464C82.4835 60.66 82.7729 60.9447 82.9875 61.318C83.2022 61.6913 83.3095 62.1393 83.3095 62.662C83.3095 63.1753 83.2022 63.6233 82.9875 64.006C82.7729 64.3793 82.4835 64.6687 82.1195 64.874C81.7555 65.07 81.3449 65.168 80.8875 65.168ZM80.8735 63.866C81.0602 63.866 81.2235 63.8193 81.3635 63.726C81.5035 63.6327 81.6155 63.4973 81.6995 63.32C81.7835 63.1427 81.8255 62.9233 81.8255 62.662C81.8255 62.3913 81.7835 62.1673 81.6995 61.99C81.6249 61.8033 81.5129 61.6633 81.3635 61.57C81.2235 61.4767 81.0602 61.43 80.8735 61.43C80.6962 61.43 80.5329 61.4767 80.3835 61.57C80.2435 61.6633 80.1315 61.8033 80.0475 61.99C79.9635 62.1673 79.9215 62.3913 79.9215 62.662C79.9215 62.9233 79.9635 63.1427 80.0475 63.32C80.1315 63.4973 80.2435 63.6327 80.3835 63.726C80.5329 63.8193 80.6962 63.866 80.8735 63.866ZM74.2935 60.058C73.8455 60.058 73.4349 59.9553 73.0615 59.75C72.6975 59.5447 72.4035 59.2553 72.1795 58.882C71.9649 58.5087 71.8575 58.0653 71.8575 57.552C71.8575 57.02 71.9649 56.572 72.1795 56.208C72.4035 55.8347 72.6975 55.5453 73.0615 55.34C73.4349 55.1347 73.8502 55.032 74.3075 55.032C74.7649 55.032 75.1709 55.1347 75.5255 55.34C75.8895 55.5453 76.1789 55.8347 76.3935 56.208C76.6175 56.572 76.7295 57.02 76.7295 57.552C76.7295 58.0653 76.6175 58.5087 76.3935 58.882C76.1789 59.2553 75.8895 59.5447 75.5255 59.75C75.1615 59.9553 74.7509 60.058 74.2935 60.058ZM74.2935 58.756C74.4709 58.756 74.6295 58.7093 74.7695 58.616C74.9189 58.5227 75.0355 58.3873 75.1195 58.21C75.2035 58.0327 75.2455 57.8133 75.2455 57.552C75.2455 57.272 75.2035 57.0433 75.1195 56.866C75.0355 56.6887 74.9189 56.5533 74.7695 56.46C74.6295 56.3667 74.4709 56.32 74.2935 56.32C74.1162 56.32 73.9529 56.3667 73.8035 56.46C73.6635 56.5533 73.5515 56.6933 73.4675 56.88C73.3835 57.0573 73.3415 57.2813 73.3415 57.552C73.3415 57.8133 73.3835 58.0327 73.4675 58.21C73.5515 58.3873 73.6635 58.5227 73.8035 58.616C73.9529 58.7093 74.1162 58.756 74.2935 58.756ZM91.1593 68.248C90.4873 68.248 89.8993 68.164 89.3953 67.996C88.8913 67.8373 88.4993 67.59 88.2193 67.254C87.9486 66.9273 87.8133 66.5213 87.8133 66.036C87.8133 65.7093 87.8973 65.4013 88.0653 65.112C88.2333 64.8227 88.4759 64.5613 88.7933 64.328C89.1199 64.0853 89.5259 63.88 90.0113 63.712L90.7253 64.636C90.2959 64.776 89.9833 64.9487 89.7873 65.154C89.6006 65.3687 89.5073 65.5973 89.5073 65.84C89.5073 66.0547 89.5773 66.2367 89.7173 66.386C89.8666 66.5353 90.0626 66.6427 90.3053 66.708C90.5573 66.7827 90.8373 66.82 91.1453 66.82C91.4439 66.82 91.7006 66.7827 91.9153 66.708C92.1393 66.6333 92.3119 66.5213 92.4333 66.372C92.5639 66.232 92.6293 66.064 92.6293 65.868C92.6293 65.616 92.5406 65.4107 92.3633 65.252C92.1859 65.0933 91.8313 64.9953 91.2993 64.958C90.8233 64.9207 90.3986 64.8693 90.0253 64.804C89.6613 64.7293 89.3393 64.6453 89.0593 64.552C88.7793 64.4493 88.5413 64.3373 88.3453 64.216C88.1586 64.0947 88.0046 63.9733 87.8833 63.852V63.53L89.3813 61.92L90.7393 62.354L88.9753 64.09L89.5073 63.166C89.6099 63.222 89.7079 63.278 89.8013 63.334C89.9039 63.3807 90.0299 63.4273 90.1793 63.474C90.3286 63.5113 90.5246 63.5487 90.7673 63.586C91.0099 63.6233 91.3179 63.656 91.6913 63.684C92.3073 63.74 92.8113 63.8567 93.2033 64.034C93.6046 64.2113 93.8986 64.4493 94.0853 64.748C94.2719 65.0373 94.3653 65.3967 94.3653 65.826C94.3653 66.246 94.2486 66.638 94.0153 67.002C93.7913 67.3753 93.4413 67.674 92.9653 67.898C92.4893 68.1313 91.8873 68.248 91.1593 68.248ZM91.1593 62.914C90.5713 62.914 90.0626 62.802 89.6333 62.578C89.2133 62.3447 88.8866 62.0367 88.6533 61.654C88.4293 61.262 88.3173 60.828 88.3173 60.352C88.3173 59.876 88.4293 59.4467 88.6533 59.064C88.8866 58.672 89.2133 58.3593 89.6333 58.126C90.0626 57.8927 90.5713 57.776 91.1593 57.776C91.7566 57.776 92.2653 57.8927 92.6853 58.126C93.1146 58.3593 93.4413 58.672 93.6653 59.064C93.8893 59.4467 94.0013 59.876 94.0013 60.352C94.0013 60.828 93.8893 61.262 93.6653 61.654C93.4413 62.0367 93.1146 62.3447 92.6853 62.578C92.2653 62.802 91.7566 62.914 91.1593 62.914ZM91.1593 61.472C91.5233 61.472 91.8173 61.3787 92.0413 61.192C92.2653 61.0053 92.3773 60.73 92.3773 60.366C92.3773 60.002 92.2653 59.7267 92.0413 59.54C91.8173 59.344 91.5233 59.246 91.1593 59.246C90.8046 59.246 90.5106 59.344 90.2773 59.54C90.0533 59.7267 89.9413 60.002 89.9413 60.366C89.9413 60.73 90.0533 61.0053 90.2773 61.192C90.5106 61.3787 90.8046 61.472 91.1593 61.472ZM92.3353 59.288L92.0273 57.944H94.9253V59.064L92.3353 59.288ZM99.5197 65.168C98.8477 65.168 98.241 65.014 97.6997 64.706C97.1677 64.3887 96.743 63.9547 96.4257 63.404C96.1177 62.844 95.9637 62.2047 95.9637 61.486C95.9637 60.7487 96.1177 60.1047 96.4257 59.554C96.743 58.994 97.1723 58.56 97.7137 58.252C98.255 57.9347 98.8617 57.776 99.5337 57.776C100.215 57.776 100.822 57.9347 101.354 58.252C101.895 58.56 102.32 58.994 102.628 59.554C102.945 60.1047 103.104 60.744 103.104 61.472C103.104 62.2 102.945 62.844 102.628 63.404C102.32 63.9547 101.895 64.3887 101.354 64.706C100.812 65.014 100.201 65.168 99.5197 65.168ZM99.5197 63.53C99.837 63.53 100.117 63.4553 100.36 63.306C100.612 63.1567 100.808 62.928 100.948 62.62C101.097 62.312 101.172 61.9293 101.172 61.472C101.172 61.0147 101.097 60.6367 100.948 60.338C100.808 60.03 100.612 59.8013 100.36 59.652C100.117 59.4933 99.8417 59.414 99.5337 59.414C99.235 59.414 98.9597 59.4933 98.7077 59.652C98.4557 59.8013 98.255 60.03 98.1057 60.338C97.9657 60.6367 97.8957 61.0147 97.8957 61.472C97.8957 61.9293 97.9657 62.312 98.1057 62.62C98.255 62.928 98.451 63.1567 98.6937 63.306C98.9457 63.4553 99.221 63.53 99.5197 63.53ZM104.733 65V57.944H106.399L106.539 59.092C106.753 58.7 107.057 58.3827 107.449 58.14C107.85 57.8973 108.326 57.776 108.877 57.776C109.465 57.776 109.959 57.8973 110.361 58.14C110.762 58.3827 111.065 58.7373 111.271 59.204C111.485 59.6707 111.593 60.2447 111.593 60.926V65H109.717V61.108C109.717 60.548 109.595 60.1187 109.353 59.82C109.119 59.5213 108.755 59.372 108.261 59.372C107.943 59.372 107.659 59.4467 107.407 59.596C107.164 59.7453 106.973 59.96 106.833 60.24C106.693 60.5107 106.623 60.842 106.623 61.234V65H104.733ZM116.761 65.168C116.052 65.168 115.422 65.0187 114.871 64.72C114.33 64.412 113.905 63.9873 113.597 63.446C113.299 62.8953 113.149 62.2607 113.149 61.542C113.149 60.8047 113.299 60.156 113.597 59.596C113.905 59.0267 114.33 58.5833 114.871 58.266C115.413 57.9393 116.043 57.776 116.761 57.776C117.461 57.776 118.073 57.93 118.595 58.238C119.118 58.546 119.524 58.9613 119.813 59.484C120.103 60.0067 120.247 60.5993 120.247 61.262C120.247 61.3553 120.247 61.4627 120.247 61.584C120.247 61.696 120.238 61.8127 120.219 61.934H114.493V60.786H118.343C118.315 60.3287 118.152 59.9693 117.853 59.708C117.564 59.4467 117.2 59.316 116.761 59.316C116.444 59.316 116.15 59.3907 115.879 59.54C115.609 59.68 115.394 59.8993 115.235 60.198C115.086 60.4967 115.011 60.8747 115.011 61.332V61.738C115.011 62.1207 115.081 62.4567 115.221 62.746C115.371 63.026 115.576 63.2453 115.837 63.404C116.099 63.5533 116.402 63.628 116.747 63.628C117.093 63.628 117.377 63.5533 117.601 63.404C117.835 63.2547 118.007 63.0633 118.119 62.83H120.051C119.921 63.2687 119.701 63.6653 119.393 64.02C119.085 64.3747 118.707 64.6547 118.259 64.86C117.811 65.0653 117.312 65.168 116.761 65.168Z" fill="#D07E4F"/>
<rect y="80" width="166" height="40" rx="4" fill="#F3F5B5"/>
<path d="M16.966 105V95.2H20.634C21.4273 95.2 22.0853 95.3353 22.608 95.606C23.1307 95.8767 23.518 96.2407 23.77 96.698C24.022 97.1553 24.148 97.678 24.148 98.266C24.148 98.8073 24.0267 99.3067 23.784 99.764C23.5413 100.221 23.1587 100.595 22.636 100.884C22.1133 101.164 21.446 101.304 20.634 101.304H18.856V105H16.966ZM18.856 99.778H20.522C21.1287 99.778 21.5627 99.6427 21.824 99.372C22.0947 99.092 22.23 98.7233 22.23 98.266C22.23 97.7807 22.0947 97.4073 21.824 97.146C21.5627 96.8753 21.1287 96.74 20.522 96.74H18.856V99.778ZM25.5236 105V97.944H27.2036L27.3856 99.246C27.5536 98.938 27.7636 98.6767 28.0156 98.462C28.2769 98.2473 28.5709 98.0793 28.8976 97.958C29.2336 97.8367 29.6023 97.776 30.0036 97.776V99.778H29.3596C29.0796 99.778 28.8183 99.8107 28.5756 99.876C28.3423 99.9413 28.1369 100.049 27.9596 100.198C27.7823 100.338 27.6469 100.534 27.5536 100.786C27.4603 101.038 27.4136 101.355 27.4136 101.738V105H25.5236ZM34.4748 105.168C33.8028 105.168 33.1961 105.014 32.6548 104.706C32.1228 104.389 31.6981 103.955 31.3808 103.404C31.0728 102.844 30.9188 102.205 30.9188 101.486C30.9188 100.749 31.0728 100.105 31.3808 99.554C31.6981 98.994 32.1274 98.56 32.6688 98.252C33.2101 97.9347 33.8168 97.776 34.4888 97.776C35.1701 97.776 35.7768 97.9347 36.3088 98.252C36.8501 98.56 37.2748 98.994 37.5828 99.554C37.9001 100.105 38.0588 100.744 38.0588 101.472C38.0588 102.2 37.9001 102.844 37.5828 103.404C37.2748 103.955 36.8501 104.389 36.3088 104.706C35.7674 105.014 35.1561 105.168 34.4748 105.168ZM34.4748 103.53C34.7921 103.53 35.0721 103.455 35.3148 103.306C35.5668 103.157 35.7628 102.928 35.9028 102.62C36.0521 102.312 36.1268 101.929 36.1268 101.472C36.1268 101.015 36.0521 100.637 35.9028 100.338C35.7628 100.03 35.5668 99.8013 35.3148 99.652C35.0721 99.4933 34.7968 99.414 34.4888 99.414C34.1901 99.414 33.9148 99.4933 33.6628 99.652C33.4108 99.8013 33.2101 100.03 33.0608 100.338C32.9208 100.637 32.8508 101.015 32.8508 101.472C32.8508 101.929 32.9208 102.312 33.0608 102.62C33.2101 102.928 33.4061 103.157 33.6488 103.306C33.9008 103.455 34.1761 103.53 34.4748 103.53ZM42.8237 105.168C42.1797 105.168 41.601 105.009 41.0877 104.692C40.5837 104.375 40.187 103.936 39.8977 103.376C39.6083 102.816 39.4637 102.186 39.4637 101.486C39.4637 100.767 39.6083 100.133 39.8977 99.582C40.1963 99.022 40.6023 98.5833 41.1157 98.266C41.6383 97.9393 42.2217 97.776 42.8657 97.776C43.3697 97.776 43.813 97.8693 44.1957 98.056C44.5783 98.2427 44.8863 98.5087 45.1197 98.854V94.92H47.0097V105H45.3297L45.1197 104.034C44.9797 104.23 44.8023 104.417 44.5877 104.594C44.3823 104.771 44.135 104.911 43.8457 105.014C43.5563 105.117 43.2157 105.168 42.8237 105.168ZM43.2717 103.516C43.645 103.516 43.9717 103.432 44.2517 103.264C44.541 103.087 44.765 102.844 44.9237 102.536C45.0823 102.228 45.1617 101.873 45.1617 101.472C45.1617 101.071 45.0823 100.716 44.9237 100.408C44.765 100.1 44.541 99.862 44.2517 99.694C43.9717 99.5167 43.645 99.428 43.2717 99.428C42.917 99.428 42.595 99.5167 42.3057 99.694C42.0163 99.862 41.7877 100.1 41.6197 100.408C41.461 100.716 41.3817 101.066 41.3817 101.458C41.3817 101.869 41.461 102.228 41.6197 102.536C41.7877 102.844 42.0117 103.087 42.2917 103.264C42.581 103.432 42.9077 103.516 43.2717 103.516ZM51.4935 105.168C50.9242 105.168 50.4342 105.051 50.0235 104.818C49.6222 104.575 49.3142 104.225 49.0995 103.768C48.8848 103.301 48.7775 102.727 48.7775 102.046V97.944H50.6675V101.85C50.6675 102.419 50.7842 102.849 51.0175 103.138C51.2602 103.427 51.6288 103.572 52.1235 103.572C52.4408 103.572 52.7208 103.502 52.9635 103.362C53.2062 103.213 53.3975 103.003 53.5375 102.732C53.6868 102.452 53.7615 102.111 53.7615 101.71V97.944H55.6375V105H53.9855L53.8315 103.852C53.6262 104.253 53.3228 104.575 52.9215 104.818C52.5202 105.051 52.0442 105.168 51.4935 105.168ZM60.9045 105.168C60.1951 105.168 59.5651 105.009 59.0145 104.692C58.4638 104.375 58.0345 103.941 57.7265 103.39C57.4185 102.839 57.2645 102.209 57.2645 101.5C57.2645 100.772 57.4185 100.133 57.7265 99.582C58.0345 99.022 58.4638 98.5833 59.0145 98.266C59.5651 97.9393 60.1951 97.776 60.9045 97.776C61.8098 97.776 62.5705 98.014 63.1865 98.49C63.8025 98.966 64.1945 99.6193 64.3625 100.45H62.3605C62.2765 100.123 62.0991 99.8667 61.8285 99.68C61.5671 99.4933 61.2545 99.4 60.8905 99.4C60.5638 99.4 60.2698 99.484 60.0085 99.652C59.7565 99.8107 59.5558 100.049 59.4065 100.366C59.2665 100.674 59.1965 101.043 59.1965 101.472C59.1965 101.799 59.2385 102.093 59.3225 102.354C59.4065 102.606 59.5231 102.825 59.6725 103.012C59.8218 103.189 59.9991 103.325 60.2045 103.418C60.4191 103.511 60.6478 103.558 60.8905 103.558C61.1331 103.558 61.3525 103.516 61.5485 103.432C61.7538 103.348 61.9265 103.231 62.0665 103.082C62.2065 102.923 62.3045 102.732 62.3605 102.508H64.3625C64.1945 103.32 63.7978 103.969 63.1725 104.454C62.5565 104.93 61.8005 105.168 60.9045 105.168ZM69.0883 105C68.5937 105 68.1597 104.925 67.7863 104.776C67.4223 104.617 67.1377 104.361 66.9323 104.006C66.727 103.642 66.6243 103.147 66.6243 102.522V99.526H65.4203V97.944H66.6243L66.8343 96.026H68.5143V97.944H70.3763V99.526H68.5143V102.55C68.5143 102.867 68.5843 103.087 68.7243 103.208C68.8643 103.329 69.1023 103.39 69.4383 103.39H70.3623V105H69.0883ZM75.2619 108.08V97.944H76.9419L77.1519 98.924C77.3012 98.7187 77.4786 98.532 77.6839 98.364C77.8892 98.1867 78.1319 98.0467 78.4119 97.944C78.7012 97.832 79.0372 97.776 79.4199 97.776C80.0826 97.776 80.6659 97.9393 81.1699 98.266C81.6739 98.5927 82.0706 99.036 82.3599 99.596C82.6586 100.147 82.8079 100.777 82.8079 101.486C82.8079 102.195 82.6586 102.83 82.3599 103.39C82.0612 103.941 81.6599 104.375 81.1559 104.692C80.6519 105.009 80.0779 105.168 79.4339 105.168C78.9112 105.168 78.4586 105.075 78.0759 104.888C77.7026 104.692 77.3946 104.426 77.1519 104.09V108.08H75.2619ZM78.9859 103.516C79.3592 103.516 79.6859 103.432 79.9659 103.264C80.2552 103.096 80.4792 102.858 80.6379 102.55C80.7966 102.242 80.8759 101.887 80.8759 101.486C80.8759 101.085 80.7966 100.73 80.6379 100.422C80.4792 100.105 80.2552 99.862 79.9659 99.694C79.6859 99.5167 79.3592 99.428 78.9859 99.428C78.6219 99.428 78.2952 99.5167 78.0059 99.694C77.7259 99.862 77.5019 100.1 77.3339 100.408C77.1752 100.716 77.0959 101.071 77.0959 101.472C77.0959 101.873 77.1752 102.233 77.3339 102.55C77.5019 102.858 77.7259 103.096 78.0059 103.264C78.2952 103.432 78.6219 103.516 78.9859 103.516ZM86.8157 105.168C86.2277 105.168 85.7424 105.075 85.3597 104.888C84.9771 104.692 84.6924 104.435 84.5057 104.118C84.3284 103.791 84.2397 103.432 84.2397 103.04C84.2397 102.611 84.3471 102.233 84.5617 101.906C84.7857 101.579 85.1171 101.323 85.5557 101.136C86.0037 100.949 86.5637 100.856 87.2357 100.856H88.9857C88.9857 100.511 88.9391 100.226 88.8457 100.002C88.7524 99.7687 88.6077 99.596 88.4117 99.484C88.2157 99.372 87.9544 99.316 87.6277 99.316C87.2731 99.316 86.9697 99.3953 86.7177 99.554C86.4751 99.7033 86.3257 99.9367 86.2697 100.254H84.4357C84.4824 99.75 84.6457 99.316 84.9257 98.952C85.2151 98.5787 85.5931 98.2893 86.0597 98.084C86.5357 97.8787 87.0631 97.776 87.6417 97.776C88.3044 97.776 88.8784 97.888 89.3637 98.112C89.8491 98.336 90.2224 98.658 90.4837 99.078C90.7451 99.498 90.8757 100.016 90.8757 100.632V105H89.2797L89.0697 103.922C88.9671 104.109 88.8457 104.277 88.7057 104.426C88.5657 104.575 88.4024 104.706 88.2157 104.818C88.0291 104.93 87.8191 105.014 87.5857 105.07C87.3524 105.135 87.0957 105.168 86.8157 105.168ZM87.2637 103.712C87.5064 103.712 87.7211 103.67 87.9077 103.586C88.1037 103.493 88.2717 103.371 88.4117 103.222C88.5517 103.063 88.6591 102.886 88.7337 102.69C88.8177 102.485 88.8737 102.265 88.9017 102.032V102.018H87.4597C87.1704 102.018 86.9324 102.055 86.7457 102.13C86.5684 102.195 86.4377 102.293 86.3537 102.424C86.2697 102.555 86.2277 102.704 86.2277 102.872C86.2277 103.059 86.2697 103.213 86.3537 103.334C86.4377 103.455 86.5591 103.549 86.7177 103.614C86.8764 103.679 87.0584 103.712 87.2637 103.712ZM95.6768 108.248C95.0048 108.248 94.4168 108.164 93.9128 107.996C93.4088 107.837 93.0168 107.59 92.7368 107.254C92.4662 106.927 92.3308 106.521 92.3308 106.036C92.3308 105.709 92.4148 105.401 92.5828 105.112C92.7508 104.823 92.9935 104.561 93.3108 104.328C93.6375 104.085 94.0435 103.88 94.5288 103.712L95.2428 104.636C94.8135 104.776 94.5008 104.949 94.3048 105.154C94.1182 105.369 94.0248 105.597 94.0248 105.84C94.0248 106.055 94.0948 106.237 94.2348 106.386C94.3842 106.535 94.5802 106.643 94.8228 106.708C95.0748 106.783 95.3548 106.82 95.6628 106.82C95.9615 106.82 96.2182 106.783 96.4328 106.708C96.6568 106.633 96.8295 106.521 96.9508 106.372C97.0815 106.232 97.1468 106.064 97.1468 105.868C97.1468 105.616 97.0582 105.411 96.8808 105.252C96.7035 105.093 96.3488 104.995 95.8168 104.958C95.3408 104.921 94.9162 104.869 94.5428 104.804C94.1788 104.729 93.8568 104.645 93.5768 104.552C93.2968 104.449 93.0588 104.337 92.8628 104.216C92.6762 104.095 92.5222 103.973 92.4008 103.852V103.53L93.8988 101.92L95.2568 102.354L93.4928 104.09L94.0248 103.166C94.1275 103.222 94.2255 103.278 94.3188 103.334C94.4215 103.381 94.5475 103.427 94.6968 103.474C94.8462 103.511 95.0422 103.549 95.2848 103.586C95.5275 103.623 95.8355 103.656 96.2088 103.684C96.8248 103.74 97.3288 103.857 97.7208 104.034C98.1222 104.211 98.4162 104.449 98.6028 104.748C98.7895 105.037 98.8828 105.397 98.8828 105.826C98.8828 106.246 98.7662 106.638 98.5328 107.002C98.3088 107.375 97.9588 107.674 97.4828 107.898C97.0068 108.131 96.4048 108.248 95.6768 108.248ZM95.6768 102.914C95.0888 102.914 94.5802 102.802 94.1508 102.578C93.7308 102.345 93.4042 102.037 93.1708 101.654C92.9468 101.262 92.8348 100.828 92.8348 100.352C92.8348 99.876 92.9468 99.4467 93.1708 99.064C93.4042 98.672 93.7308 98.3593 94.1508 98.126C94.5802 97.8927 95.0888 97.776 95.6768 97.776C96.2742 97.776 96.7828 97.8927 97.2028 98.126C97.6322 98.3593 97.9588 98.672 98.1828 99.064C98.4068 99.4467 98.5188 99.876 98.5188 100.352C98.5188 100.828 98.4068 101.262 98.1828 101.654C97.9588 102.037 97.6322 102.345 97.2028 102.578C96.7828 102.802 96.2742 102.914 95.6768 102.914ZM95.6768 101.472C96.0408 101.472 96.3348 101.379 96.5588 101.192C96.7828 101.005 96.8948 100.73 96.8948 100.366C96.8948 100.002 96.7828 99.7267 96.5588 99.54C96.3348 99.344 96.0408 99.246 95.6768 99.246C95.3222 99.246 95.0282 99.344 94.7948 99.54C94.5708 99.7267 94.4588 100.002 94.4588 100.366C94.4588 100.73 94.5708 101.005 94.7948 101.192C95.0282 101.379 95.3222 101.472 95.6768 101.472ZM96.8528 99.288L96.5448 97.944H99.4428V99.064L96.8528 99.288ZM104.093 105.168C103.384 105.168 102.754 105.019 102.203 104.72C101.662 104.412 101.237 103.987 100.929 103.446C100.631 102.895 100.481 102.261 100.481 101.542C100.481 100.805 100.631 100.156 100.929 99.596C101.237 99.0267 101.662 98.5833 102.203 98.266C102.745 97.9393 103.375 97.776 104.093 97.776C104.793 97.776 105.405 97.93 105.927 98.238C106.45 98.546 106.856 98.9613 107.145 99.484C107.435 100.007 107.579 100.599 107.579 101.262C107.579 101.355 107.579 101.463 107.579 101.584C107.579 101.696 107.57 101.813 107.551 101.934H101.825V100.786H105.675C105.647 100.329 105.484 99.9693 105.185 99.708C104.896 99.4467 104.532 99.316 104.093 99.316C103.776 99.316 103.482 99.3907 103.211 99.54C102.941 99.68 102.726 99.8993 102.567 100.198C102.418 100.497 102.343 100.875 102.343 101.332V101.738C102.343 102.121 102.413 102.457 102.553 102.746C102.703 103.026 102.908 103.245 103.169 103.404C103.431 103.553 103.734 103.628 104.079 103.628C104.425 103.628 104.709 103.553 104.933 103.404C105.167 103.255 105.339 103.063 105.451 102.83H107.383C107.253 103.269 107.033 103.665 106.725 104.02C106.417 104.375 106.039 104.655 105.591 104.86C105.143 105.065 104.644 105.168 104.093 105.168ZM112.011 105.168C111.367 105.168 110.807 105.065 110.331 104.86C109.855 104.655 109.482 104.37 109.211 104.006C108.94 103.642 108.786 103.231 108.749 102.774H110.625C110.672 102.951 110.751 103.115 110.863 103.264C110.975 103.404 111.124 103.516 111.311 103.6C111.498 103.684 111.722 103.726 111.983 103.726C112.235 103.726 112.44 103.693 112.599 103.628C112.758 103.553 112.874 103.455 112.949 103.334C113.033 103.213 113.075 103.087 113.075 102.956C113.075 102.76 113.019 102.611 112.907 102.508C112.795 102.396 112.632 102.307 112.417 102.242C112.202 102.177 111.941 102.111 111.633 102.046C111.297 101.981 110.966 101.901 110.639 101.808C110.322 101.705 110.037 101.579 109.785 101.43C109.533 101.281 109.332 101.089 109.183 100.856C109.034 100.623 108.959 100.333 108.959 99.988C108.959 99.568 109.071 99.1947 109.295 98.868C109.519 98.532 109.846 98.266 110.275 98.07C110.704 97.874 111.222 97.776 111.829 97.776C112.678 97.776 113.35 97.9673 113.845 98.35C114.34 98.7327 114.634 99.26 114.727 99.932H112.949C112.893 99.7173 112.767 99.5493 112.571 99.428C112.384 99.2973 112.132 99.232 111.815 99.232C111.479 99.232 111.222 99.2927 111.045 99.414C110.868 99.5353 110.779 99.694 110.779 99.89C110.779 100.021 110.835 100.137 110.947 100.24C111.068 100.343 111.236 100.431 111.451 100.506C111.666 100.571 111.927 100.637 112.235 100.702C112.776 100.814 113.252 100.945 113.663 101.094C114.074 101.234 114.396 101.439 114.629 101.71C114.862 101.971 114.979 102.354 114.979 102.858C114.979 103.306 114.858 103.707 114.615 104.062C114.372 104.407 114.027 104.678 113.579 104.874C113.14 105.07 112.618 105.168 112.011 105.168Z" fill="#44490D"/>
<path d="M568.7 105V103.614C569.297 103.138 569.876 102.662 570.436 102.186C571.005 101.71 571.514 101.239 571.962 100.772C572.41 100.296 572.765 99.834 573.026 99.386C573.287 98.938 573.418 98.504 573.418 98.084C573.418 97.8227 573.371 97.5847 573.278 97.37C573.185 97.146 573.035 96.9687 572.83 96.838C572.634 96.698 572.373 96.628 572.046 96.628C571.719 96.628 571.444 96.7027 571.22 96.852C570.996 97.0013 570.828 97.202 570.716 97.454C570.604 97.6967 570.548 97.972 570.548 98.28H568.714C568.742 97.5613 568.905 96.9593 569.204 96.474C569.503 95.9887 569.904 95.6293 570.408 95.396C570.912 95.1533 571.477 95.032 572.102 95.032C572.793 95.032 573.376 95.1627 573.852 95.424C574.328 95.676 574.687 96.0213 574.93 96.46C575.182 96.8987 575.308 97.4027 575.308 97.972C575.308 98.4013 575.229 98.8213 575.07 99.232C574.921 99.6427 574.706 100.044 574.426 100.436C574.155 100.819 573.847 101.187 573.502 101.542C573.157 101.897 572.797 102.237 572.424 102.564C572.051 102.881 571.687 103.18 571.332 103.46H575.546V105H568.7ZM577.538 105L581.136 96.81H576.39V95.2H583.068V96.53L579.498 105H577.538ZM584.448 105.07C584.093 105.07 583.809 104.967 583.594 104.762C583.379 104.547 583.272 104.286 583.272 103.978C583.272 103.67 583.379 103.413 583.594 103.208C583.809 102.993 584.093 102.886 584.448 102.886C584.784 102.886 585.059 102.993 585.274 103.208C585.489 103.413 585.596 103.67 585.596 103.978C585.596 104.286 585.489 104.547 585.274 104.762C585.059 104.967 584.784 105.07 584.448 105.07ZM587.327 105L590.925 96.81H586.179V95.2H592.857V96.53L589.287 105H587.327ZM595.911 105L601.413 95.2H603.247L597.745 105H595.911ZM602.911 105.168C602.454 105.168 602.038 105.07 601.665 104.874C601.301 104.669 601.012 104.379 600.797 104.006C600.582 103.623 600.475 103.175 600.475 102.662C600.475 102.139 600.582 101.691 600.797 101.318C601.012 100.945 601.301 100.66 601.665 100.464C602.038 100.259 602.454 100.156 602.911 100.156C603.368 100.156 603.779 100.259 604.143 100.464C604.507 100.66 604.796 100.945 605.011 101.318C605.226 101.691 605.333 102.139 605.333 102.662C605.333 103.175 605.226 103.623 605.011 104.006C604.796 104.379 604.507 104.669 604.143 104.874C603.779 105.07 603.368 105.168 602.911 105.168ZM602.897 103.866C603.084 103.866 603.247 103.819 603.387 103.726C603.527 103.633 603.639 103.497 603.723 103.32C603.807 103.143 603.849 102.923 603.849 102.662C603.849 102.391 603.807 102.167 603.723 101.99C603.648 101.803 603.536 101.663 603.387 101.57C603.247 101.477 603.084 101.43 602.897 101.43C602.72 101.43 602.556 101.477 602.407 101.57C602.267 101.663 602.155 101.803 602.071 101.99C601.987 102.167 601.945 102.391 601.945 102.662C601.945 102.923 601.987 103.143 602.071 103.32C602.155 103.497 602.267 103.633 602.407 103.726C602.556 103.819 602.72 103.866 602.897 103.866ZM596.317 100.058C595.869 100.058 595.458 99.9553 595.085 99.75C594.721 99.5447 594.427 99.2553 594.203 98.882C593.988 98.5087 593.881 98.0653 593.881 97.552C593.881 97.02 593.988 96.572 594.203 96.208C594.427 95.8347 594.721 95.5453 595.085 95.34C595.458 95.1347 595.874 95.032 596.331 95.032C596.788 95.032 597.194 95.1347 597.549 95.34C597.913 95.5453 598.202 95.8347 598.417 96.208C598.641 96.572 598.753 97.02 598.753 97.552C598.753 98.0653 598.641 98.5087 598.417 98.882C598.202 99.2553 597.913 99.5447 597.549 99.75C597.185 99.9553 596.774 100.058 596.317 100.058ZM596.317 98.756C596.494 98.756 596.653 98.7093 596.793 98.616C596.942 98.5227 597.059 98.3873 597.143 98.21C597.227 98.0327 597.269 97.8133 597.269 97.552C597.269 97.272 597.227 97.0433 597.143 96.866C597.059 96.6887 596.942 96.5533 596.793 96.46C596.653 96.3667 596.494 96.32 596.317 96.32C596.14 96.32 595.976 96.3667 595.827 96.46C595.687 96.5533 595.575 96.6933 595.491 96.88C595.407 97.0573 595.365 97.2813 595.365 97.552C595.365 97.8133 595.407 98.0327 595.491 98.21C595.575 98.3873 595.687 98.5227 595.827 98.616C595.976 98.7093 596.14 98.756 596.317 98.756Z" fill="#D07E4F"/>
<path d="M23.2929 148.207C23.6834 148.598 24.3166 148.598 24.7071 148.207L31.0711 141.843C31.4616 141.453 31.4616 140.819 31.0711 140.429C30.6805 140.038 30.0474 140.038 29.6569 140.429L24 146.086L18.3431 140.429C17.9526 140.038 17.3195 140.038 16.9289 140.429C16.5384 140.819 16.5384 141.453 16.9289 141.843L23.2929 148.207ZM24 132.5L23 132.5L23 147.5L24 147.5L25 147.5L25 132.5L24 132.5Z" fill="#D07E4F"/>
<path d="M41.966 145V135.2H44.22L47.216 141.318L50.184 135.2H52.438V145H50.548V138.42L47.958 143.628H46.46L43.856 138.42V145H41.966ZM57.6564 145.168C56.9844 145.168 56.3777 145.014 55.8364 144.706C55.3044 144.389 54.8797 143.955 54.5624 143.404C54.2544 142.844 54.1004 142.205 54.1004 141.486C54.1004 140.749 54.2544 140.105 54.5624 139.554C54.8797 138.994 55.3091 138.56 55.8504 138.252C56.3917 137.935 56.9984 137.776 57.6704 137.776C58.3517 137.776 58.9584 137.935 59.4904 138.252C60.0317 138.56 60.4564 138.994 60.7644 139.554C61.0817 140.105 61.2404 140.744 61.2404 141.472C61.2404 142.2 61.0817 142.844 60.7644 143.404C60.4564 143.955 60.0317 144.389 59.4904 144.706C58.9491 145.014 58.3377 145.168 57.6564 145.168ZM57.6564 143.53C57.9737 143.53 58.2537 143.455 58.4964 143.306C58.7484 143.157 58.9444 142.928 59.0844 142.62C59.2337 142.312 59.3084 141.929 59.3084 141.472C59.3084 141.015 59.2337 140.637 59.0844 140.338C58.9444 140.03 58.7484 139.801 58.4964 139.652C58.2537 139.493 57.9784 139.414 57.6704 139.414C57.3717 139.414 57.0964 139.493 56.8444 139.652C56.5924 139.801 56.3917 140.03 56.2424 140.338C56.1024 140.637 56.0324 141.015 56.0324 141.472C56.0324 141.929 56.1024 142.312 56.2424 142.62C56.3917 142.928 56.5877 143.157 56.8304 143.306C57.0824 143.455 57.3577 143.53 57.6564 143.53ZM62.8693 145V137.944H64.5493L64.7313 139.246C64.8993 138.938 65.1093 138.677 65.3613 138.462C65.6226 138.247 65.9166 138.079 66.2433 137.958C66.5793 137.837 66.948 137.776 67.3493 137.776V139.778H66.7053C66.4253 139.778 66.164 139.811 65.9213 139.876C65.688 139.941 65.4826 140.049 65.3053 140.198C65.128 140.338 64.9926 140.534 64.8993 140.786C64.806 141.038 64.7593 141.355 64.7593 141.738V145H62.8693ZM71.8765 145.168C71.1671 145.168 70.5371 145.019 69.9865 144.72C69.4451 144.412 69.0205 143.987 68.7125 143.446C68.4138 142.895 68.2645 142.261 68.2645 141.542C68.2645 140.805 68.4138 140.156 68.7125 139.596C69.0205 139.027 69.4451 138.583 69.9865 138.266C70.5278 137.939 71.1578 137.776 71.8765 137.776C72.5765 137.776 73.1878 137.93 73.7105 138.238C74.2331 138.546 74.6391 138.961 74.9285 139.484C75.2178 140.007 75.3625 140.599 75.3625 141.262C75.3625 141.355 75.3625 141.463 75.3625 141.584C75.3625 141.696 75.3531 141.813 75.3345 141.934H69.6085V140.786H73.4585C73.4305 140.329 73.2671 139.969 72.9685 139.708C72.6791 139.447 72.3151 139.316 71.8765 139.316C71.5591 139.316 71.2651 139.391 70.9945 139.54C70.7238 139.68 70.5091 139.899 70.3505 140.198C70.2011 140.497 70.1265 140.875 70.1265 141.332V141.738C70.1265 142.121 70.1965 142.457 70.3365 142.746C70.4858 143.026 70.6911 143.245 70.9525 143.404C71.2138 143.553 71.5171 143.628 71.8625 143.628C72.2078 143.628 72.4925 143.553 72.7165 143.404C72.9498 143.255 73.1225 143.063 73.2345 142.83H75.1665C75.0358 143.269 74.8165 143.665 74.5085 144.02C74.2005 144.375 73.8225 144.655 73.3745 144.86C72.9265 145.065 72.4271 145.168 71.8765 145.168ZM83.3413 145.168C82.6973 145.168 82.1186 145.009 81.6053 144.692C81.1013 144.375 80.7046 143.936 80.4153 143.376C80.1259 142.816 79.9813 142.186 79.9813 141.486C79.9813 140.767 80.1259 140.133 80.4153 139.582C80.7139 139.022 81.1199 138.583 81.6333 138.266C82.1559 137.939 82.7393 137.776 83.3833 137.776C83.8873 137.776 84.3306 137.869 84.7133 138.056C85.0959 138.243 85.4039 138.509 85.6373 138.854V134.92H87.5273V145H85.8473L85.6373 144.034C85.4973 144.23 85.3199 144.417 85.1053 144.594C84.8999 144.771 84.6526 144.911 84.3633 145.014C84.0739 145.117 83.7333 145.168 83.3413 145.168ZM83.7893 143.516C84.1626 143.516 84.4893 143.432 84.7693 143.264C85.0586 143.087 85.2826 142.844 85.4413 142.536C85.5999 142.228 85.6793 141.873 85.6793 141.472C85.6793 141.071 85.5999 140.716 85.4413 140.408C85.2826 140.1 85.0586 139.862 84.7693 139.694C84.4893 139.517 84.1626 139.428 83.7893 139.428C83.4346 139.428 83.1126 139.517 82.8233 139.694C82.5339 139.862 82.3053 140.1 82.1373 140.408C81.9786 140.716 81.8993 141.066 81.8993 141.458C81.8993 141.869 81.9786 142.228 82.1373 142.536C82.3053 142.844 82.5293 143.087 82.8093 143.264C83.0986 143.432 83.4253 143.516 83.7893 143.516ZM89.3791 145V137.944H91.0591L91.2411 139.246C91.4091 138.938 91.6191 138.677 91.8711 138.462C92.1324 138.247 92.4264 138.079 92.7531 137.958C93.0891 137.837 93.4577 137.776 93.8591 137.776V139.778H93.2151C92.9351 139.778 92.6737 139.811 92.4311 139.876C92.1977 139.941 91.9924 140.049 91.8151 140.198C91.6377 140.338 91.5024 140.534 91.4091 140.786C91.3157 141.038 91.2691 141.355 91.2691 141.738V145H89.3791ZM98.3302 145.168C97.6582 145.168 97.0516 145.014 96.5102 144.706C95.9782 144.389 95.5536 143.955 95.2362 143.404C94.9282 142.844 94.7742 142.205 94.7742 141.486C94.7742 140.749 94.9282 140.105 95.2362 139.554C95.5536 138.994 95.9829 138.56 96.5242 138.252C97.0656 137.935 97.6722 137.776 98.3442 137.776C99.0256 137.776 99.6322 137.935 100.164 138.252C100.706 138.56 101.13 138.994 101.438 139.554C101.756 140.105 101.914 140.744 101.914 141.472C101.914 142.2 101.756 142.844 101.438 143.404C101.13 143.955 100.706 144.389 100.164 144.706C99.6229 145.014 99.0116 145.168 98.3302 145.168ZM98.3302 143.53C98.6476 143.53 98.9276 143.455 99.1702 143.306C99.4222 143.157 99.6182 142.928 99.7582 142.62C99.9076 142.312 99.9822 141.929 99.9822 141.472C99.9822 141.015 99.9076 140.637 99.7582 140.338C99.6182 140.03 99.4222 139.801 99.1702 139.652C98.9276 139.493 98.6522 139.414 98.3442 139.414C98.0456 139.414 97.7702 139.493 97.5182 139.652C97.2662 139.801 97.0656 140.03 96.9162 140.338C96.7762 140.637 96.7062 141.015 96.7062 141.472C96.7062 141.929 96.7762 142.312 96.9162 142.62C97.0656 142.928 97.2616 143.157 97.5042 143.306C97.7562 143.455 98.0316 143.53 98.3302 143.53ZM103.543 148.08V137.944H105.223L105.433 138.924C105.582 138.719 105.76 138.532 105.965 138.364C106.17 138.187 106.413 138.047 106.693 137.944C106.982 137.832 107.318 137.776 107.701 137.776C108.364 137.776 108.947 137.939 109.451 138.266C109.955 138.593 110.352 139.036 110.641 139.596C110.94 140.147 111.089 140.777 111.089 141.486C111.089 142.195 110.94 142.83 110.641 143.39C110.342 143.941 109.941 144.375 109.437 144.692C108.933 145.009 108.359 145.168 107.715 145.168C107.192 145.168 106.74 145.075 106.357 144.888C105.984 144.692 105.676 144.426 105.433 144.09V148.08H103.543ZM107.267 143.516C107.64 143.516 107.967 143.432 108.247 143.264C108.536 143.096 108.76 142.858 108.919 142.55C109.078 142.242 109.157 141.887 109.157 141.486C109.157 141.085 109.078 140.73 108.919 140.422C108.76 140.105 108.536 139.862 108.247 139.694C107.967 139.517 107.64 139.428 107.267 139.428C106.903 139.428 106.576 139.517 106.287 139.694C106.007 139.862 105.783 140.1 105.615 140.408C105.456 140.716 105.377 141.071 105.377 141.472C105.377 141.873 105.456 142.233 105.615 142.55C105.783 142.858 106.007 143.096 106.287 143.264C106.576 143.432 106.903 143.516 107.267 143.516Z" fill="#D07E4F"/>
<rect y="160" width="129" height="40" rx="4" fill="#F3F5B5"/>
<path d="M16.308 185L19.892 175.2H22.034L25.604 185H23.602L20.956 177.356L18.296 185H16.308ZM17.89 182.774L18.394 181.304H23.378L23.868 182.774H17.89ZM26.8498 185V174.92H28.7398V185H26.8498ZM30.5822 185V174.92H32.4722V185H30.5822ZM39.4995 185L36.9095 177.944H38.8975L40.6475 183.222L42.3975 177.944H44.3715L41.7955 185H39.4995ZM45.5676 185V177.944H47.4576V185H45.5676ZM46.5196 176.978C46.1836 176.978 45.9036 176.88 45.6796 176.684C45.4649 176.479 45.3576 176.222 45.3576 175.914C45.3576 175.606 45.4649 175.354 45.6796 175.158C45.9036 174.953 46.1836 174.85 46.5196 174.85C46.8649 174.85 47.1449 174.953 47.3596 175.158C47.5836 175.354 47.6956 175.606 47.6956 175.914C47.6956 176.222 47.5836 176.479 47.3596 176.684C47.1449 176.88 46.8649 176.978 46.5196 176.978ZM52.2514 185.168C51.6074 185.168 51.0474 185.065 50.5714 184.86C50.0954 184.655 49.722 184.37 49.4514 184.006C49.1807 183.642 49.0267 183.231 48.9894 182.774H50.8654C50.912 182.951 50.9914 183.115 51.1034 183.264C51.2154 183.404 51.3647 183.516 51.5514 183.6C51.738 183.684 51.962 183.726 52.2234 183.726C52.4754 183.726 52.6807 183.693 52.8394 183.628C52.998 183.553 53.1147 183.455 53.1894 183.334C53.2734 183.213 53.3154 183.087 53.3154 182.956C53.3154 182.76 53.2594 182.611 53.1474 182.508C53.0354 182.396 52.872 182.307 52.6574 182.242C52.4427 182.177 52.1814 182.111 51.8734 182.046C51.5374 181.981 51.206 181.901 50.8794 181.808C50.562 181.705 50.2774 181.579 50.0254 181.43C49.7734 181.281 49.5727 181.089 49.4234 180.856C49.274 180.623 49.1994 180.333 49.1994 179.988C49.1994 179.568 49.3114 179.195 49.5354 178.868C49.7594 178.532 50.086 178.266 50.5154 178.07C50.9447 177.874 51.4627 177.776 52.0694 177.776C52.9187 177.776 53.5907 177.967 54.0854 178.35C54.58 178.733 54.874 179.26 54.9674 179.932H53.1894C53.1334 179.717 53.0074 179.549 52.8114 179.428C52.6247 179.297 52.3727 179.232 52.0554 179.232C51.7194 179.232 51.4627 179.293 51.2854 179.414C51.108 179.535 51.0194 179.694 51.0194 179.89C51.0194 180.021 51.0754 180.137 51.1874 180.24C51.3087 180.343 51.4767 180.431 51.6914 180.506C51.906 180.571 52.1674 180.637 52.4754 180.702C53.0167 180.814 53.4927 180.945 53.9034 181.094C54.314 181.234 54.636 181.439 54.8694 181.71C55.1027 181.971 55.2194 182.354 55.2194 182.858C55.2194 183.306 55.098 183.707 54.8554 184.062C54.6127 184.407 54.2674 184.678 53.8194 184.874C53.3807 185.07 52.858 185.168 52.2514 185.168ZM56.8605 185V177.944H58.7505V185H56.8605ZM57.8125 176.978C57.4765 176.978 57.1965 176.88 56.9725 176.684C56.7579 176.479 56.6505 176.222 56.6505 175.914C56.6505 175.606 56.7579 175.354 56.9725 175.158C57.1965 174.953 57.4765 174.85 57.8125 174.85C58.1579 174.85 58.4379 174.953 58.6525 175.158C58.8765 175.354 58.9885 175.606 58.9885 175.914C58.9885 176.222 58.8765 176.479 58.6525 176.684C58.4379 176.88 58.1579 176.978 57.8125 176.978ZM63.8383 185C63.3437 185 62.9097 184.925 62.5363 184.776C62.1723 184.617 61.8877 184.361 61.6823 184.006C61.477 183.642 61.3743 183.147 61.3743 182.522V179.526H60.1703V177.944H61.3743L61.5843 176.026H63.2643V177.944H65.1263V179.526H63.2643V182.55C63.2643 182.867 63.3343 183.087 63.4743 183.208C63.6143 183.329 63.8523 183.39 64.1883 183.39H65.1123V185H63.8383ZM69.8712 185.168C69.1992 185.168 68.5926 185.014 68.0512 184.706C67.5192 184.389 67.0946 183.955 66.7772 183.404C66.4692 182.844 66.3152 182.205 66.3152 181.486C66.3152 180.749 66.4692 180.105 66.7772 179.554C67.0946 178.994 67.5239 178.56 68.0652 178.252C68.6066 177.935 69.2132 177.776 69.8852 177.776C70.5666 177.776 71.1732 177.935 71.7052 178.252C72.2466 178.56 72.6712 178.994 72.9792 179.554C73.2966 180.105 73.4552 180.744 73.4552 181.472C73.4552 182.2 73.2966 182.844 72.9792 183.404C72.6712 183.955 72.2466 184.389 71.7052 184.706C71.1639 185.014 70.5526 185.168 69.8712 185.168ZM69.8712 183.53C70.1886 183.53 70.4686 183.455 70.7112 183.306C70.9632 183.157 71.1592 182.928 71.2992 182.62C71.4486 182.312 71.5232 181.929 71.5232 181.472C71.5232 181.015 71.4486 180.637 71.2992 180.338C71.1592 180.03 70.9632 179.801 70.7112 179.652C70.4686 179.493 70.1932 179.414 69.8852 179.414C69.5866 179.414 69.3112 179.493 69.0592 179.652C68.8072 179.801 68.6066 180.03 68.4572 180.338C68.3172 180.637 68.2472 181.015 68.2472 181.472C68.2472 181.929 68.3172 182.312 68.4572 182.62C68.6066 182.928 68.8026 183.157 69.0452 183.306C69.2972 183.455 69.5726 183.53 69.8712 183.53ZM75.0842 185V177.944H76.7642L76.9462 179.246C77.1142 178.938 77.3242 178.677 77.5762 178.462C77.8375 178.247 78.1315 178.079 78.4582 177.958C78.7942 177.837 79.1628 177.776 79.5642 177.776V179.778H78.9202C78.6402 179.778 78.3788 179.811 78.1362 179.876C77.9028 179.941 77.6975 180.049 77.5202 180.198C77.3428 180.338 77.2075 180.534 77.1142 180.786C77.0208 181.038 76.9742 181.355 76.9742 181.738V185H75.0842ZM83.6967 185.168C83.0527 185.168 82.4927 185.065 82.0167 184.86C81.5407 184.655 81.1673 184.37 80.8967 184.006C80.626 183.642 80.472 183.231 80.4347 182.774H82.3107C82.3573 182.951 82.4367 183.115 82.5487 183.264C82.6607 183.404 82.81 183.516 82.9967 183.6C83.1833 183.684 83.4073 183.726 83.6687 183.726C83.9207 183.726 84.126 183.693 84.2847 183.628C84.4433 183.553 84.56 183.455 84.6347 183.334C84.7187 183.213 84.7607 183.087 84.7607 182.956C84.7607 182.76 84.7047 182.611 84.5927 182.508C84.4807 182.396 84.3173 182.307 84.1027 182.242C83.888 182.177 83.6267 182.111 83.3187 182.046C82.9827 181.981 82.6513 181.901 82.3247 181.808C82.0073 181.705 81.7227 181.579 81.4707 181.43C81.2187 181.281 81.018 181.089 80.8687 180.856C80.7193 180.623 80.6447 180.333 80.6447 179.988C80.6447 179.568 80.7567 179.195 80.9807 178.868C81.2047 178.532 81.5313 178.266 81.9607 178.07C82.39 177.874 82.908 177.776 83.5147 177.776C84.364 177.776 85.036 177.967 85.5307 178.35C86.0253 178.733 86.3193 179.26 86.4127 179.932H84.6347C84.5787 179.717 84.4527 179.549 84.2567 179.428C84.07 179.297 83.818 179.232 83.5007 179.232C83.1647 179.232 82.908 179.293 82.7307 179.414C82.5533 179.535 82.4647 179.694 82.4647 179.89C82.4647 180.021 82.5207 180.137 82.6327 180.24C82.754 180.343 82.922 180.431 83.1367 180.506C83.3513 180.571 83.6127 180.637 83.9207 180.702C84.462 180.814 84.938 180.945 85.3487 181.094C85.7593 181.234 86.0813 181.439 86.3147 181.71C86.548 181.971 86.6647 182.354 86.6647 182.858C86.6647 183.306 86.5433 183.707 86.3007 184.062C86.058 184.407 85.7127 184.678 85.2647 184.874C84.826 185.07 84.3033 185.168 83.6967 185.168Z" fill="#44490D"/>
<path d="M564.7 185V183.614C565.297 183.138 565.876 182.662 566.436 182.186C567.005 181.71 567.514 181.239 567.962 180.772C568.41 180.296 568.765 179.834 569.026 179.386C569.287 178.938 569.418 178.504 569.418 178.084C569.418 177.823 569.371 177.585 569.278 177.37C569.185 177.146 569.035 176.969 568.83 176.838C568.634 176.698 568.373 176.628 568.046 176.628C567.719 176.628 567.444 176.703 567.22 176.852C566.996 177.001 566.828 177.202 566.716 177.454C566.604 177.697 566.548 177.972 566.548 178.28H564.714C564.742 177.561 564.905 176.959 565.204 176.474C565.503 175.989 565.904 175.629 566.408 175.396C566.912 175.153 567.477 175.032 568.102 175.032C568.793 175.032 569.376 175.163 569.852 175.424C570.328 175.676 570.687 176.021 570.93 176.46C571.182 176.899 571.308 177.403 571.308 177.972C571.308 178.401 571.229 178.821 571.07 179.232C570.921 179.643 570.706 180.044 570.426 180.436C570.155 180.819 569.847 181.187 569.502 181.542C569.157 181.897 568.797 182.237 568.424 182.564C568.051 182.881 567.687 183.18 567.332 183.46H571.546V185H564.7ZM576.953 185.168C576.067 185.168 575.301 184.953 574.657 184.524C574.013 184.095 573.519 183.502 573.173 182.746C572.837 181.981 572.669 181.099 572.669 180.1C572.669 179.101 572.837 178.224 573.173 177.468C573.519 176.703 574.009 176.105 574.643 175.676C575.287 175.247 576.057 175.032 576.953 175.032C577.849 175.032 578.615 175.247 579.249 175.676C579.893 176.105 580.383 176.703 580.719 177.468C581.065 178.224 581.237 179.101 581.237 180.1C581.237 181.099 581.065 181.981 580.719 182.746C580.383 183.502 579.893 184.095 579.249 184.524C578.615 184.953 577.849 185.168 576.953 185.168ZM576.953 183.474C577.42 183.474 577.831 183.339 578.185 183.068C578.54 182.788 578.815 182.396 579.011 181.892C579.217 181.388 579.319 180.791 579.319 180.1C579.319 179.4 579.217 178.803 579.011 178.308C578.815 177.804 578.54 177.417 578.185 177.146C577.831 176.875 577.42 176.74 576.953 176.74C576.487 176.74 576.076 176.875 575.721 177.146C575.367 177.417 575.087 177.804 574.881 178.308C574.685 178.803 574.587 179.4 574.587 180.1C574.587 180.791 574.685 181.388 574.881 181.892C575.087 182.396 575.367 182.788 575.721 183.068C576.076 183.339 576.487 183.474 576.953 183.474ZM583.1 185.07C582.746 185.07 582.461 184.967 582.246 184.762C582.032 184.547 581.924 184.286 581.924 183.978C581.924 183.67 582.032 183.413 582.246 183.208C582.461 182.993 582.746 182.886 583.1 182.886C583.436 182.886 583.712 182.993 583.926 183.208C584.141 183.413 584.248 183.67 584.248 183.978C584.248 184.286 584.141 184.547 583.926 184.762C583.712 184.967 583.436 185.07 583.1 185.07ZM585.55 185V183.614C586.147 183.138 586.726 182.662 587.286 182.186C587.855 181.71 588.364 181.239 588.812 180.772C589.26 180.296 589.614 179.834 589.876 179.386C590.137 178.938 590.268 178.504 590.268 178.084C590.268 177.823 590.221 177.585 590.128 177.37C590.034 177.146 589.885 176.969 589.68 176.838C589.484 176.698 589.222 176.628 588.896 176.628C588.569 176.628 588.294 176.703 588.07 176.852C587.846 177.001 587.678 177.202 587.566 177.454C587.454 177.697 587.398 177.972 587.398 178.28H585.564C585.592 177.561 585.755 176.959 586.054 176.474C586.352 175.989 586.754 175.629 587.258 175.396C587.762 175.153 588.326 175.032 588.952 175.032C589.642 175.032 590.226 175.163 590.702 175.424C591.178 175.676 591.537 176.021 591.78 176.46C592.032 176.899 592.158 177.403 592.158 177.972C592.158 178.401 592.078 178.821 591.92 179.232C591.77 179.643 591.556 180.044 591.276 180.436C591.005 180.819 590.697 181.187 590.352 181.542C590.006 181.897 589.647 182.237 589.274 182.564C588.9 182.881 588.536 183.18 588.182 183.46H592.396V185H585.55ZM595.548 185L601.05 175.2H602.884L597.382 185H595.548ZM602.548 185.168C602.09 185.168 601.675 185.07 601.302 184.874C600.938 184.669 600.648 184.379 600.434 184.006C600.219 183.623 600.112 183.175 600.112 182.662C600.112 182.139 600.219 181.691 600.434 181.318C600.648 180.945 600.938 180.66 601.302 180.464C601.675 180.259 602.09 180.156 602.548 180.156C603.005 180.156 603.416 180.259 603.78 180.464C604.144 180.66 604.433 180.945 604.648 181.318C604.862 181.691 604.97 182.139 604.97 182.662C604.97 183.175 604.862 183.623 604.648 184.006C604.433 184.379 604.144 184.669 603.78 184.874C603.416 185.07 603.005 185.168 602.548 185.168ZM602.534 183.866C602.72 183.866 602.884 183.819 603.024 183.726C603.164 183.633 603.276 183.497 603.36 183.32C603.444 183.143 603.486 182.923 603.486 182.662C603.486 182.391 603.444 182.167 603.36 181.99C603.285 181.803 603.173 181.663 603.024 181.57C602.884 181.477 602.72 181.43 602.534 181.43C602.356 181.43 602.193 181.477 602.044 181.57C601.904 181.663 601.792 181.803 601.708 181.99C601.624 182.167 601.582 182.391 601.582 182.662C601.582 182.923 601.624 183.143 601.708 183.32C601.792 183.497 601.904 183.633 602.044 183.726C602.193 183.819 602.356 183.866 602.534 183.866ZM595.954 180.058C595.506 180.058 595.095 179.955 594.722 179.75C594.358 179.545 594.064 179.255 593.84 178.882C593.625 178.509 593.518 178.065 593.518 177.552C593.518 177.02 593.625 176.572 593.84 176.208C594.064 175.835 594.358 175.545 594.722 175.34C595.095 175.135 595.51 175.032 595.968 175.032C596.425 175.032 596.831 175.135 597.186 175.34C597.55 175.545 597.839 175.835 598.054 176.208C598.278 176.572 598.39 177.02 598.39 177.552C598.39 178.065 598.278 178.509 598.054 178.882C597.839 179.255 597.55 179.545 597.186 179.75C596.822 179.955 596.411 180.058 595.954 180.058ZM595.954 178.756C596.131 178.756 596.29 178.709 596.43 178.616C596.579 178.523 596.696 178.387 596.78 178.21C596.864 178.033 596.906 177.813 596.906 177.552C596.906 177.272 596.864 177.043 596.78 176.866C596.696 176.689 596.579 176.553 596.43 176.46C596.29 176.367 596.131 176.32 595.954 176.32C595.776 176.32 595.613 176.367 595.464 176.46C595.324 176.553 595.212 176.693 595.128 176.88C595.044 177.057 595.002 177.281 595.002 177.552C595.002 177.813 595.044 178.033 595.128 178.21C595.212 178.387 595.324 178.523 595.464 178.616C595.613 178.709 595.776 178.756 595.954 178.756Z" fill="#D07E4F"/>
</svg>
