<svg width="1157" height="1157" viewBox="0 0 1157 1157" fill="none" xmlns="http://www.w3.org/2000/svg">
<mask id="path-1-inside-1_17_47" fill="white">
<path d="M840.024 575.111C845.998 517.719 834.38 459.867 806.711 409.231C779.043 358.596 736.631 317.571 685.104 291.599C633.577 265.628 575.371 255.939 518.209 263.817C461.048 271.695 407.633 296.768 365.052 335.71C322.472 374.651 292.739 425.62 279.799 481.852C266.859 538.084 271.323 596.922 292.6 650.558C313.877 704.194 350.96 750.093 398.929 782.163C446.898 814.234 503.485 830.96 561.18 830.123L559.604 721.455C523.948 721.973 488.977 711.636 459.332 691.816C429.688 671.997 406.77 643.631 393.621 610.484C380.472 577.337 377.713 540.976 385.71 506.224C393.707 471.472 412.082 439.974 438.396 415.908C464.711 391.842 497.722 376.347 533.048 371.478C568.373 366.61 604.345 372.598 636.188 388.648C668.032 404.698 694.242 430.052 711.342 461.344C728.441 492.637 735.621 528.39 731.929 563.858L840.024 575.111Z"/>
</mask>
<path d="M840.024 575.111C845.998 517.719 834.38 459.867 806.711 409.231C779.043 358.596 736.631 317.571 685.104 291.599C633.577 265.628 575.371 255.939 518.209 263.817C461.048 271.695 407.633 296.768 365.052 335.71C322.472 374.651 292.739 425.62 279.799 481.852C266.859 538.084 271.323 596.922 292.6 650.558C313.877 704.194 350.96 750.093 398.929 782.163C446.898 814.234 503.485 830.96 561.18 830.123L559.604 721.455C523.948 721.973 488.977 711.636 459.332 691.816C429.688 671.997 406.77 643.631 393.621 610.484C380.472 577.337 377.713 540.976 385.71 506.224C393.707 471.472 412.082 439.974 438.396 415.908C464.711 391.842 497.722 376.347 533.048 371.478C568.373 366.61 604.345 372.598 636.188 388.648C668.032 404.698 694.242 430.052 711.342 461.344C728.441 492.637 735.621 528.39 731.929 563.858L840.024 575.111Z" stroke="black" stroke-width="200" mask="url(#path-1-inside-1_17_47)"/>
<path d="M468.664 388.781C612.247 305.883 754.552 252.473 868.472 233.05C925.447 223.337 975.129 222.158 1014.25 229.91C1053.38 237.664 1081.5 254.25 1096.2 279.697C1110.89 305.144 1111.19 337.794 1098.34 375.557C1085.49 413.312 1059.63 455.749 1022.73 500.233C948.95 589.18 831.543 685.714 687.96 768.612C544.377 851.509 402.072 904.92 288.152 924.343C231.177 934.056 181.494 935.235 142.375 927.483C103.247 919.729 75.121 903.144 60.429 877.697C45.7371 852.25 45.4368 819.599 58.2856 781.836C71.1314 744.081 96.9939 701.644 133.893 657.16C207.674 568.213 325.081 471.679 468.664 388.781Z" stroke="black" stroke-width="7"/>
</svg>
