<svg width="1265" height="988" viewBox="0 0 1265 988" fill="none" xmlns="http://www.w3.org/2000/svg">
<mask id="path-1-inside-1_19_5" fill="white">
<path d="M893.942 489.97C899.916 432.578 888.298 374.726 860.629 324.09C832.96 273.455 790.549 232.43 739.022 206.458C687.495 180.487 629.289 170.798 572.127 178.676C514.966 186.554 461.551 211.627 418.97 250.569C376.39 289.51 346.657 340.478 333.717 396.711C320.777 452.943 325.241 511.781 346.518 565.417C367.795 619.053 404.878 664.952 452.847 697.022C500.816 729.093 557.402 745.819 615.098 744.982L613.522 636.314C577.866 636.832 542.895 626.495 513.25 606.675C483.606 586.856 460.688 558.49 447.539 525.343C434.39 492.196 431.631 455.834 439.628 421.083C447.625 386.331 466 354.833 492.314 330.767C518.629 306.701 551.64 291.206 586.965 286.337C622.291 281.468 658.263 287.456 690.106 303.507C721.95 319.557 748.16 344.911 765.26 376.203C782.359 407.496 789.539 443.249 785.847 478.717L893.942 489.97Z"/>
</mask>
<path d="M893.942 489.97C899.916 432.578 888.298 374.726 860.629 324.09C832.96 273.455 790.549 232.43 739.022 206.458C687.495 180.487 629.289 170.798 572.127 178.676C514.966 186.554 461.551 211.627 418.97 250.569C376.39 289.51 346.657 340.478 333.717 396.711C320.777 452.943 325.241 511.781 346.518 565.417C367.795 619.053 404.878 664.952 452.847 697.022C500.816 729.093 557.402 745.819 615.098 744.982L613.522 636.314C577.866 636.832 542.895 626.495 513.25 606.675C483.606 586.856 460.688 558.49 447.539 525.343C434.39 492.196 431.631 455.834 439.628 421.083C447.625 386.331 466 354.833 492.314 330.767C518.629 306.701 551.64 291.206 586.965 286.337C622.291 281.468 658.263 287.456 690.106 303.507C721.95 319.557 748.16 344.911 765.26 376.203C782.359 407.496 789.539 443.249 785.847 478.717L893.942 489.97Z" stroke="white" stroke-width="200" mask="url(#path-1-inside-1_19_5)"/>
<path d="M522.664 303.781C666.247 220.883 808.547 167.465 922.461 148.03C979.431 138.31 1029.11 137.124 1068.22 144.868C1107.35 152.614 1135.47 169.189 1150.15 194.626C1164.84 220.063 1165.13 252.703 1152.28 290.458C1139.43 328.205 1113.56 370.634 1076.66 415.112C1002.87 504.047 885.461 600.573 741.878 683.471C598.295 766.368 455.995 819.787 342.082 839.222C285.111 848.942 235.433 850.128 196.318 842.384C157.194 834.638 129.074 818.063 114.388 792.626C99.702 767.189 99.4075 734.549 112.261 696.794C125.112 659.047 150.978 616.618 187.882 572.139C261.67 483.205 379.081 386.679 522.664 303.781Z" stroke="white" stroke-width="7"/>
</svg>
