<svg width="1363" height="1386" viewBox="0 0 1363 1386" fill="none" xmlns="http://www.w3.org/2000/svg">
<rect x="0.144043" width="1362" height="1386" rx="681" fill="black"/>
<mask id="path-2-inside-1_13_12" fill="white">
<path d="M963.471 721.958C969.445 664.566 957.828 606.714 930.159 556.079C902.49 505.443 860.078 464.418 808.551 438.447C757.024 412.475 698.818 402.786 641.657 410.664C584.495 418.542 531.08 443.616 488.5 482.557C445.919 521.498 416.186 572.467 403.246 628.699C390.306 684.932 394.771 743.769 416.048 797.405C437.324 851.041 474.407 896.94 522.376 929.01C570.345 961.081 626.932 977.807 684.628 976.97L683.051 868.302C647.395 868.82 612.424 858.483 582.78 838.663C553.135 818.844 530.217 790.479 517.068 757.332C503.919 724.184 501.16 687.823 509.157 653.071C517.154 618.319 535.529 586.821 561.844 562.755C588.158 538.689 621.169 523.194 656.495 518.325C691.821 513.457 727.792 519.445 759.636 535.495C791.479 551.545 817.69 576.899 834.789 608.192C851.888 639.484 859.068 675.237 855.376 710.705L963.471 721.958Z"/>
</mask>
<path d="M963.471 721.958C969.445 664.566 957.828 606.714 930.159 556.079C902.49 505.443 860.078 464.418 808.551 438.447C757.024 412.475 698.818 402.786 641.657 410.664C584.495 418.542 531.08 443.616 488.5 482.557C445.919 521.498 416.186 572.467 403.246 628.699C390.306 684.932 394.771 743.769 416.048 797.405C437.324 851.041 474.407 896.94 522.376 929.01C570.345 961.081 626.932 977.807 684.628 976.97L683.051 868.302C647.395 868.82 612.424 858.483 582.78 838.663C553.135 818.844 530.217 790.479 517.068 757.332C503.919 724.184 501.16 687.823 509.157 653.071C517.154 618.319 535.529 586.821 561.844 562.755C588.158 538.689 621.169 523.194 656.495 518.325C691.821 513.457 727.792 519.445 759.636 535.495C791.479 551.545 817.69 576.899 834.789 608.192C851.888 639.484 859.068 675.237 855.376 710.705L963.471 721.958Z" stroke="white" stroke-width="200" mask="url(#path-2-inside-1_13_12)"/>
<path d="M593.02 537.202C736.49 454.369 878.618 401.02 992.308 381.61C1049.17 371.902 1098.65 370.732 1137.52 378.42C1176.4 386.111 1204.04 402.515 1218.42 427.431C1232.81 452.346 1233.19 484.486 1220.41 522.003C1207.64 559.507 1181.89 601.77 1145.05 646.162C1071.39 734.916 954.127 831.327 810.657 914.16C667.187 996.992 525.06 1050.34 411.37 1069.75C354.504 1079.46 305.028 1080.63 266.161 1072.94C227.281 1065.25 199.64 1048.85 185.255 1023.93C170.87 999.015 170.484 966.875 183.263 929.359C196.039 891.855 221.79 849.592 258.63 805.199C332.285 716.446 449.55 620.034 593.02 537.202Z" stroke="white" stroke-width="10"/>
</svg>
