<svg width="1157" height="1157" viewBox="0 0 1157 1157" fill="none" xmlns="http://www.w3.org/2000/svg">
<mask id="path-1-inside-1_17_47" fill="white">
<path d="M840.024 575.111C845.998 517.719 834.38 459.867 806.711 409.231C779.043 358.596 736.631 317.571 685.104 291.599C633.577 265.628 575.371 255.939 518.209 263.817C461.048 271.695 407.633 296.768 365.052 335.71C322.472 374.651 292.739 425.62 279.799 481.852C266.859 538.084 271.323 596.922 292.6 650.558C313.877 704.194 350.96 750.093 398.929 782.163C446.898 814.234 503.484 830.96 561.18 830.123L559.604 721.455C523.948 721.973 488.977 711.636 459.332 691.816C429.688 671.997 406.77 643.631 393.621 610.484C380.472 577.337 377.713 540.976 385.71 506.224C393.707 471.472 412.082 439.974 438.396 415.908C464.711 391.842 497.722 376.347 533.048 371.478C568.373 366.61 604.345 372.598 636.188 388.648C668.032 404.698 694.242 430.052 711.342 461.344C728.441 492.637 735.621 528.39 731.929 563.858L840.024 575.111Z"/>
</mask>
<path d="M840.024 575.111C845.998 517.719 834.38 459.867 806.711 409.231C779.043 358.596 736.631 317.571 685.104 291.599C633.577 265.628 575.371 255.939 518.209 263.817C461.048 271.695 407.633 296.768 365.052 335.71C322.472 374.651 292.739 425.62 279.799 481.852C266.859 538.084 271.323 596.922 292.6 650.558C313.877 704.194 350.96 750.093 398.929 782.163C446.898 814.234 503.484 830.96 561.18 830.123L559.604 721.455C523.948 721.973 488.977 711.636 459.332 691.816C429.688 671.997 406.77 643.631 393.621 610.484C380.472 577.337 377.713 540.976 385.71 506.224C393.707 471.472 412.082 439.974 438.396 415.908C464.711 391.842 497.722 376.347 533.048 371.478C568.373 366.61 604.345 372.598 636.188 388.648C668.032 404.698 694.242 430.052 711.342 461.344C728.441 492.637 735.621 528.39 731.929 563.858L840.024 575.111Z" stroke="black" stroke-width="200" mask="url(#path-1-inside-1_17_47)"/>
<path d="M469.414 390.08C612.884 307.248 755.02 253.915 868.724 234.53C925.597 224.833 975.081 223.678 1013.96 231.382C1052.85 239.089 1080.5 255.511 1094.9 280.447C1109.29 305.383 1109.69 337.541 1096.92 375.074C1084.15 412.594 1058.41 454.872 1021.58 499.276C947.936 588.054 830.679 684.481 687.21 767.313C543.74 850.145 401.604 903.479 287.9 922.864C231.028 932.56 181.543 933.715 142.666 926.011C103.778 918.304 76.1248 901.883 61.7281 876.947C47.3314 852.011 46.9358 819.852 59.7059 782.319C72.4719 744.799 98.2153 702.522 135.049 658.118C208.689 569.34 325.944 472.912 469.414 390.08Z" stroke="black" stroke-width="10"/>
</svg>
