<svg width="1127" height="793" viewBox="0 0 1127 793" fill="none" xmlns="http://www.w3.org/2000/svg">
<mask id="path-1-inside-1_19_5" fill="white">
<path d="M824.942 384.467C830.916 327.075 819.298 269.223 791.629 218.587C763.961 167.952 721.549 126.927 670.022 100.955C618.495 74.9841 560.289 65.2948 503.127 73.173C445.966 81.0511 392.551 106.124 349.97 145.066C307.39 184.007 277.657 234.976 264.717 291.208C251.777 347.44 256.241 406.278 277.518 459.914C298.795 513.55 335.878 559.449 383.847 591.519C431.816 623.59 488.402 640.316 546.098 639.479L544.522 530.811C508.866 531.329 473.895 520.992 444.25 501.172C414.606 481.353 391.688 452.987 378.539 419.84C365.39 386.693 362.631 350.331 370.628 315.58C378.625 280.828 397 249.33 423.314 225.264C449.629 201.198 482.64 185.703 517.965 180.834C553.291 175.966 589.263 181.954 621.106 198.004C652.95 214.054 679.16 239.408 696.26 270.7C713.359 301.993 720.539 337.746 716.847 373.214L824.942 384.467Z"/>
</mask>
<path d="M824.942 384.467C830.916 327.075 819.298 269.223 791.629 218.587C763.961 167.952 721.549 126.927 670.022 100.955C618.495 74.9841 560.289 65.2948 503.127 73.173C445.966 81.0511 392.551 106.124 349.97 145.066C307.39 184.007 277.657 234.976 264.717 291.208C251.777 347.44 256.241 406.278 277.518 459.914C298.795 513.55 335.878 559.449 383.847 591.519C431.816 623.59 488.402 640.316 546.098 639.479L544.522 530.811C508.866 531.329 473.895 520.992 444.25 501.172C414.606 481.353 391.688 452.987 378.539 419.84C365.39 386.693 362.631 350.331 370.628 315.58C378.625 280.828 397 249.33 423.314 225.264C449.629 201.198 482.64 185.703 517.965 180.834C553.291 175.966 589.263 181.954 621.106 198.004C652.95 214.054 679.16 239.408 696.26 270.7C713.359 301.993 720.539 337.746 716.847 373.214L824.942 384.467Z" stroke="white" stroke-width="200" mask="url(#path-1-inside-1_19_5)"/>
<path d="M454.414 199.577C597.884 116.745 740.016 63.4033 853.713 44.0051C910.582 34.3025 960.062 33.1406 998.933 40.8367C1037.82 48.5353 1065.46 64.9475 1079.86 89.8729C1094.25 114.798 1094.64 146.947 1081.86 184.472C1069.09 221.983 1043.34 264.253 1006.51 308.652C932.859 397.417 815.598 493.836 672.128 576.669C528.658 659.501 386.526 712.843 272.829 732.241C215.961 741.943 166.481 743.105 127.609 735.409C88.7248 727.711 61.0778 711.298 46.6871 686.373C32.2963 661.447 31.9065 629.298 44.6815 591.774C57.4523 554.262 83.1985 511.992 120.036 467.594C193.683 378.829 310.944 282.41 454.414 199.577Z" stroke="white" stroke-width="10"/>
</svg>
